# xmcd
#
# Track frame offsets: 
#        187
#        22807
#        41924
#        58374
#        72142
#        91414
#        104689
#        115439
#        132229
#        143972
#        159907
#        174634
#
# Disc length: 3565 seconds
#
# Revision: 9
# Processed by: cddbd v1.5.2PL0 Copyright (c) Steve Scherf et al.
# Submitted via: ExactAudioCopy v1.0b6
#
DISCID=ad0deb0c
DTITLE=Nirvana - Nevermind [MVCG-67]
DYEAR=1991
DGENRE=Grunge
TTITLE0=Smells Like Teen Spirit
TTITLE1=In Bloom
TTITLE2=Come As You Are
TTITLE3=Breed
TTITLE4=Lithium
TTITLE5=Polly
TTITLE6=Territorial Pissings
TTITLE7=Drain You
TTITLE8=Lounge Act
TTITLE9=Stay Away
TTITLE10=On A Plain
TTITLE11=Something In The Way - Endless Nameless
EXTD=YEAR: 1991
EXTT0=
EXTT1=
EXTT2=
EXTT3=
EXTT4=
EXTT5=
EXTT6=
EXTT7=
EXTT8=
EXTT9=
EXTT10=
EXTT11=
PLAYORDER=
